<svg width="120" height="30" viewBox="0 0 120 30" fill="none" xmlns="http://www.w3.org/2000/svg">
<g id="ardio">
<g id="ardio_2">
<path id="Vector" d="M101.486 21.0336C101.486 19.3707 101.872 17.8816 102.645 16.5663C103.443 15.2509 104.553 14.2209 105.974 13.4764C107.395 12.707 109.029 12.3223 110.874 12.3223C112.744 12.3223 114.365 12.707 115.736 13.4764C117.108 14.2209 118.155 15.2509 118.878 16.5663C119.626 17.8816 120 19.3707 120 21.0336C120 22.6964 119.626 24.1979 118.878 25.5381C118.155 26.8535 117.108 27.8958 115.736 28.6652C114.365 29.4346 112.719 29.8193 110.799 29.8193C109.004 29.8193 107.395 29.4718 105.974 28.7769C104.578 28.082 103.481 27.0768 102.683 25.7615C101.885 24.4461 101.486 22.8701 101.486 21.0336ZM106.76 21.0708C106.76 21.9146 106.934 22.684 107.283 23.3789C107.632 24.049 108.106 24.5826 108.705 24.9797C109.303 25.3768 109.976 25.5753 110.724 25.5753C111.547 25.5753 112.258 25.3768 112.856 24.9797C113.455 24.5826 113.916 24.049 114.24 23.3789C114.564 22.684 114.726 21.9146 114.726 21.0708C114.726 20.2022 114.564 19.4328 114.24 18.7627C113.916 18.0926 113.455 17.559 112.856 17.1619C112.258 16.7648 111.547 16.5663 110.724 16.5663C109.976 16.5663 109.303 16.7648 108.705 17.1619C108.106 17.559 107.632 18.0926 107.283 18.7627C106.934 19.4328 106.76 20.2022 106.76 21.0708Z" fill="#222222"/>
<path id="Vector_2" d="M92.6275 13.1041H97.8638V29.3725H92.6275V13.1041ZM92.5153 7.33383C92.5153 6.56446 92.8145 5.93159 93.4129 5.43523C94.0363 4.93886 94.697 4.69067 95.3952 4.69067C96.0934 4.69067 96.7292 4.93886 97.3027 5.43523C97.9012 5.93159 98.2004 6.56446 98.2004 7.33383C98.2004 8.1032 97.9012 8.73607 97.3027 9.23243C96.7292 9.70398 96.0934 9.93976 95.3952 9.93976C94.697 9.93976 94.0363 9.70398 93.4129 9.23243C92.8145 8.73607 92.5153 8.1032 92.5153 7.33383Z" fill="#222222"/>
<path id="Vector_3" d="M76.444 29.8193C74.9229 29.8193 73.564 29.4718 72.3671 28.7769C71.1703 28.0572 70.2227 27.0272 69.5246 25.687C68.8513 24.3468 68.5147 22.7584 68.5147 20.9219C68.5147 19.0853 68.8887 17.5218 69.6368 16.2312C70.3848 14.9407 71.4071 13.9603 72.7037 13.2902C74.0003 12.6201 75.4715 12.2851 77.1172 12.2851C78.1644 12.2851 79.1618 12.4464 80.1094 12.769C81.0818 13.0917 81.8922 13.5881 82.5405 14.2581V15.8962V0H87.7394V29.3725H82.5031V26.2082L82.9145 27.325C82.0667 28.0199 81.1192 28.6156 80.072 29.1119C79.0247 29.5835 77.8154 29.8193 76.444 29.8193ZM78.1644 25.4264C78.8626 25.4264 79.4735 25.3395 79.9971 25.1658C80.5457 24.9673 81.0195 24.6943 81.4184 24.3468C81.8423 23.9745 82.2039 23.5154 82.5031 22.9694V18.986C82.3036 18.44 81.9919 17.9809 81.568 17.6086C81.1691 17.2115 80.6704 16.9137 80.072 16.7152C79.4985 16.4918 78.8626 16.3801 78.1644 16.3801C77.3915 16.3801 76.6684 16.5787 75.9951 16.9758C75.3468 17.348 74.8232 17.8692 74.4242 18.5393C74.0253 19.2094 73.8258 19.9788 73.8258 20.8474C73.8258 21.7161 74.0253 22.4978 74.4242 23.1928C74.8232 23.8877 75.3468 24.4337 75.9951 24.8308C76.6684 25.2279 77.3915 25.4264 78.1644 25.4264Z" fill="#222222"/>
<path id="Vector_4" d="M60.3877 13.1042L60.8739 17.5715L60.7617 16.9014C61.2355 15.9335 61.8838 15.1144 62.7066 14.4444C63.5295 13.7494 64.3399 13.2158 65.1378 12.8436C65.9606 12.4713 66.584 12.2852 67.0079 12.2852L66.7461 17.497C65.5243 17.3481 64.477 17.5466 63.6043 18.0927C62.7316 18.6387 62.0583 19.3584 61.5846 20.2518C61.1108 21.1453 60.8739 22.0636 60.8739 23.0067V29.3726H55.675V13.1042H60.3877Z" fill="#222222"/>
<path id="Vector_5" d="M40.081 29.8193C38.56 29.8193 37.1761 29.5215 35.9294 28.9259C34.7076 28.3054 33.7351 27.3623 33.012 26.0966C32.2889 24.8308 31.9274 23.2176 31.9274 21.257C31.9274 19.4204 32.3014 17.8321 33.0494 16.4919C33.7975 15.1517 34.7824 14.1217 36.0042 13.402C37.226 12.6574 38.5226 12.2852 39.894 12.2852C41.5148 12.2852 42.7366 12.5582 43.5594 13.1042C44.4072 13.6253 45.1054 14.2086 45.6539 14.8539L45.4295 15.4867L45.9157 13.1042H50.778V29.3726H45.5417V25.836L45.9531 26.9528C45.9033 26.9528 45.7537 27.1017 45.5043 27.3995C45.255 27.6725 44.881 28.0076 44.3823 28.4047C43.9085 28.777 43.3101 29.0996 42.587 29.3726C41.8888 29.6704 41.0535 29.8193 40.081 29.8193ZM41.5771 25.5754C42.2005 25.5754 42.7615 25.4885 43.2602 25.3148C43.7589 25.1162 44.1952 24.8432 44.5693 24.4958C44.9433 24.1235 45.2674 23.6644 45.5417 23.1184V19.135C45.3422 18.589 45.043 18.1299 44.6441 17.7576C44.2451 17.3605 43.7714 17.0627 43.2228 16.8641C42.6742 16.6408 42.0633 16.5291 41.3901 16.5291C40.6421 16.5291 39.9439 16.7276 39.2956 17.1247C38.6722 17.497 38.1735 18.0182 37.7995 18.6883C37.4255 19.3584 37.2385 20.1278 37.2385 20.9964C37.2385 21.865 37.4379 22.6468 37.8369 23.3417C38.2359 24.0366 38.7595 24.5827 39.4078 24.9797C40.081 25.3768 40.8041 25.5754 41.5771 25.5754Z" fill="#222222"/>
</g>
<g id="Group 1410126545">
<path id="Rectangle 30" d="M0 11.2422C7.2993 10.5248 13.6441 16.1957 13.7099 23.496L13.768 29.9401C7.25664 30.5916 1.45014 25.8594 0.807066 19.3773L0 11.2422Z" fill="url(#paint0_linear_9921_109)" fill-opacity="0.9"/>
<path id="Rectangle 31" d="M26.5702 12.926C18.1831 13.3875 11.998 20.9076 13.2 29.1824L13.3141 29.9685C21.1108 29.6362 27.1311 23.0259 26.7004 15.2704L26.5702 12.926Z" fill="url(#paint1_linear_9921_109)"/>
<g id="Rectangle 32" filter="url(#filter0_b_9921_109)">
<path d="M12.6187 29.9686C20.0868 26.7995 23.5789 18.2199 20.4327 10.7707L16.2347 0.83139C14.7652 1.44627 14.0304 1.75371 13.4419 2.07297C7.80636 5.13001 5.18064 11.7663 7.20855 17.8272C7.42033 18.4602 7.74716 19.1837 8.40082 20.6308L12.6187 29.9686Z" fill="url(#paint2_linear_9921_109)" fill-opacity="0.6"/>
</g>
</g>
</g>
<defs>
<filter id="filter0_b_9921_109" x="-5.47229" y="-11.1686" width="39.0615" height="53.1372" filterUnits="userSpaceOnUse" color-interpolation-filters="sRGB">
<feFlood flood-opacity="0" result="BackgroundImageFix"/>
<feGaussianBlur in="BackgroundImageFix" stdDeviation="6"/>
<feComposite in2="SourceAlpha" operator="in" result="effect1_backgroundBlur_9921_109"/>
<feBlend mode="normal" in="SourceGraphic" in2="effect1_backgroundBlur_9921_109" result="shape"/>
</filter>
<linearGradient id="paint0_linear_9921_109" x1="8.87353" y1="29.8407" x2="6.78768" y2="8.61795" gradientUnits="userSpaceOnUse">
<stop stop-color="#F78C2A"/>
<stop offset="1" stop-color="#FFCD59"/>
</linearGradient>
<linearGradient id="paint1_linear_9921_109" x1="19.6528" y1="29.3089" x2="18.6872" y2="11.7594" gradientUnits="userSpaceOnUse">
<stop stop-color="#F78C2A"/>
<stop offset="1" stop-color="#FFCD59"/>
</linearGradient>
<linearGradient id="paint2_linear_9921_109" x1="9.26728" y1="3.71614" x2="19.1038" y2="27.2244" gradientUnits="userSpaceOnUse">
<stop stop-color="#FFCD59"/>
<stop offset="1" stop-color="#FFB572"/>
</linearGradient>
</defs>
</svg>
