<svg width="16" height="16" viewBox="0 0 16 16" fill="none" xmlns="http://www.w3.org/2000/svg">
<g id="error- 1">
<path id="Vector" d="M6.72164 2.63357L1.15908 11.9337C0.750441 12.6172 0.9914 13.4921 1.69732 13.8876C1.92228 14.0137 2.17732 14.08 2.43748 14.08H13.5629C14.3789 14.08 15.04 13.44 15.04 12.6502C15.04 12.3987 14.9716 12.1513 14.8413 11.9334L9.27876 2.63357C8.8698 1.95037 7.96612 1.71709 7.25988 2.11261C7.03806 2.23629 6.85249 2.4159 6.72164 2.63357ZM8.00004 12.8C7.74543 12.8 7.50125 12.6988 7.32122 12.5188C7.14118 12.3388 7.04004 12.0946 7.04004 11.84C7.04004 11.5854 7.14118 11.3412 7.32122 11.1611C7.50125 10.9811 7.74543 10.88 8.00004 10.88C8.25465 10.88 8.49883 10.9811 8.67886 11.1611C8.8589 11.3412 8.96004 11.5854 8.96004 11.84C8.96004 12.0946 8.8589 12.3388 8.67886 12.5188C8.49883 12.6988 8.25465 12.8 8.00004 12.8ZM8.00004 4.79997C8.16029 4.79995 8.31872 4.83402 8.4648 4.89992C8.61088 4.96582 8.74127 5.06203 8.84731 5.18218C8.95336 5.30233 9.03263 5.44366 9.07987 5.59679C9.12712 5.74993 9.14124 5.91136 9.12132 6.07037L8.7194 9.28477C8.6972 9.45988 8.61188 9.62088 8.47944 9.73758C8.34701 9.85429 8.17656 9.91867 8.00004 9.91867C7.82352 9.91867 7.65307 9.85429 7.52064 9.73758C7.3882 9.62088 7.30288 9.45988 7.28068 9.28477L6.87876 6.07005C6.85888 5.91106 6.87305 5.74967 6.92031 5.59657C6.96758 5.44348 7.04686 5.30219 7.1529 5.18208C7.25894 5.06196 7.38932 4.96578 7.53537 4.8999C7.68142 4.83402 7.83982 4.79996 8.00004 4.79997Z" fill="#E43A15"/>
</g>
</svg>
