<svg width="20" height="20" viewBox="0 0 20 20" fill="none" xmlns="http://www.w3.org/2000/svg">
<g id="expand">
<path id="Union" fill-rule="evenodd" clip-rule="evenodd" d="M2 4C2 3.44772 2.44772 3 3 3H17C17.5523 3 18 3.44772 18 4C18 4.55228 17.5523 5 17 5H3C2.44772 5 2 4.55228 2 4ZM2 10C2 9.44772 2.44772 9 3 9H17C17.5523 9 18 9.44772 18 10C18 10.5523 17.5523 11 17 11H3C2.44772 11 2 10.5523 2 10ZM3 15C2.44772 15 2 15.4477 2 16C2 16.5523 2.44772 17 3 17H17C17.5523 17 18 16.5523 18 16C18 15.4477 17.5523 15 17 15H3Z" fill="#333333"/>
</g>
</svg>
