<svg width="20" height="20" viewBox="0 0 20 20" fill="none" xmlns="http://www.w3.org/2000/svg">
<g id="huixingzhen-4 1">
<path id="Vector" d="M8.87871 14.7407C8.68653 14.9424 8.45633 15.1025 8.20192 15.2115C7.94751 15.3204 7.67413 15.3759 7.39815 15.3746C7.12218 15.3733 6.84931 15.3152 6.5959 15.2039C6.34248 15.0926 6.11375 14.9303 5.92341 14.7268C5.53099 14.3079 5.31103 13.7517 5.30875 13.1727C5.30647 12.5937 5.52203 12.0358 5.91114 11.6137L11.8463 5.36272C11.9104 5.29625 11.987 5.24361 12.0716 5.20793C12.1561 5.17226 12.2468 5.15427 12.3383 5.15505C12.4298 5.15582 12.5202 5.17535 12.6041 5.21246C12.688 5.24957 12.7638 5.30351 12.8268 5.37106C13.0969 5.65444 13.0996 6.11424 12.835 6.40317L6.89987 12.657C6.77825 12.7868 6.70597 12.9565 6.69598 13.1357C6.68598 13.3149 6.73892 13.4919 6.84532 13.6349L6.89987 13.6988C7.01876 13.8259 7.1805 13.9025 7.35256 13.9131C7.52461 13.9236 7.69421 13.8674 7.82724 13.7558L7.88861 13.7002L14.3188 6.92409C14.6987 6.51891 14.9177 5.98472 14.9336 5.42468C14.9494 4.86464 14.761 4.31847 14.4047 3.89165L14.3188 3.79719C13.9471 3.39981 13.4366 3.16764 12.8979 3.151C12.3593 3.13436 11.8359 3.33458 11.4412 3.70828L11.3526 3.79719L4.9224 10.5691C4.28248 11.2518 3.91677 12.1537 3.89733 13.0974C3.87789 14.041 4.20614 14.9578 4.81739 15.6672L4.9224 15.7811C5.23229 16.1127 5.60341 16.3786 6.01446 16.5637C6.42551 16.7488 6.8684 16.8494 7.31771 16.8597C7.76702 16.8701 8.21392 16.7899 8.63274 16.6239C9.05157 16.4579 9.43408 16.2092 9.75834 15.8922L9.86744 15.7811L16.2976 9.00777C16.3824 8.91439 16.4906 8.8464 16.6105 8.81114C16.7305 8.77588 16.8576 8.77471 16.9782 8.80773C17.2236 8.87441 17.4146 9.07583 17.4773 9.33421C17.5086 9.46011 17.5075 9.59211 17.4741 9.71745C17.4406 9.84278 17.376 9.95719 17.2864 10.0496L10.8589 16.8229C10.4122 17.3002 9.8751 17.6802 9.28003 17.9398C8.68495 18.1994 8.04433 18.3333 7.39697 18.3333C6.7496 18.3333 6.10898 18.1994 5.5139 17.9398C4.91883 17.6802 4.38169 17.3002 3.93503 16.8229C2.02166 14.8087 2.02166 11.5429 3.93503 9.52869L10.3639 2.75535C10.7894 2.29736 11.329 1.96565 11.9252 1.79562C12.5213 1.62559 13.1516 1.62362 13.7487 1.78991C14.3508 1.96481 14.8968 2.29833 15.3319 2.75685C15.767 3.21536 16.0756 3.78264 16.2267 4.40145C16.386 5.02594 16.3852 5.6816 16.2245 6.3057C16.0638 6.92979 15.7485 7.50144 15.3089 7.96593L8.88007 14.7393L8.87871 14.7407Z" fill="#999999"/>
</g>
</svg>
