<svg width="24" height="24" viewBox="0 0 24 24" fill="none" xmlns="http://www.w3.org/2000/svg">
<mask id="path-1-inside-1_8407_656" fill="white">
<path d="M0 11.9993C0 5.37226 5.37226 0 11.9993 0V0C18.6263 0 23.9986 5.37226 23.9986 11.9993V11.9993C23.9986 18.6263 18.6263 23.9986 11.9993 23.9986V23.9986C5.37226 23.9986 0 18.6263 0 11.9993V11.9993Z"/>
</mask>
<path d="M11.9993 23.0895C5.87434 23.0895 0.909091 18.1242 0.909091 11.9993H-0.909091C-0.909091 19.1284 4.87019 24.9077 11.9993 24.9077V23.0895ZM23.0895 11.9993C23.0895 18.1242 18.1242 23.0895 11.9993 23.0895V24.9077C19.1284 24.9077 24.9077 19.1284 24.9077 11.9993H23.0895ZM11.9993 0.909091C18.1242 0.909091 23.0895 5.87434 23.0895 11.9993H24.9077C24.9077 4.87019 19.1284 -0.909091 11.9993 -0.909091V0.909091ZM11.9993 -0.909091C4.87019 -0.909091 -0.909091 4.87019 -0.909091 11.9993H0.909091C0.909091 5.87434 5.87434 0.909091 11.9993 0.909091V-0.909091Z" fill="black" fill-opacity="0.1" mask="url(#path-1-inside-1_8407_656)"/>
<path d="M12.1021 14.0508H11.0122C11.0161 13.6758 11.0493 13.3691 11.1118 13.1309C11.1782 12.8887 11.2856 12.668 11.4341 12.4688C11.5825 12.2695 11.7798 12.043 12.0259 11.7891C12.2056 11.6055 12.3696 11.4336 12.5181 11.2734C12.6704 11.1094 12.7935 10.9336 12.8872 10.7461C12.981 10.5547 13.0278 10.3262 13.0278 10.0605C13.0278 9.79102 12.979 9.55859 12.8813 9.36328C12.7876 9.16797 12.647 9.01758 12.4595 8.91211C12.2759 8.80664 12.0474 8.75391 11.7739 8.75391C11.5474 8.75391 11.3325 8.79492 11.1294 8.87695C10.9263 8.95898 10.7622 9.08594 10.6372 9.25781C10.5122 9.42578 10.4478 9.64648 10.4438 9.91992H9.35986C9.36768 9.47852 9.47705 9.09961 9.68799 8.7832C9.90283 8.4668 10.1919 8.22461 10.5552 8.05664C10.9185 7.88867 11.3247 7.80469 11.7739 7.80469C12.27 7.80469 12.6919 7.89453 13.0396 8.07422C13.3911 8.25391 13.6587 8.51172 13.8423 8.84766C14.0259 9.17969 14.1177 9.57422 14.1177 10.0312C14.1177 10.3828 14.0454 10.707 13.9009 11.0039C13.7603 11.2969 13.5786 11.5723 13.356 11.8301C13.1333 12.0879 12.897 12.334 12.647 12.5684C12.4321 12.7676 12.2876 12.9922 12.2134 13.2422C12.1392 13.4922 12.1021 13.7617 12.1021 14.0508ZM10.9653 15.9082C10.9653 15.7324 11.02 15.584 11.1294 15.4629C11.2388 15.3418 11.397 15.2812 11.604 15.2812C11.8149 15.2812 11.9751 15.3418 12.0845 15.4629C12.1938 15.584 12.2485 15.7324 12.2485 15.9082C12.2485 16.0762 12.1938 16.2207 12.0845 16.3418C11.9751 16.4629 11.8149 16.5234 11.604 16.5234C11.397 16.5234 11.2388 16.4629 11.1294 16.3418C11.02 16.2207 10.9653 16.0762 10.9653 15.9082Z" fill="#7D7D7D"/>
</svg>
