<svg width="16" height="16" viewBox="0 0 16 16" fill="none" xmlns="http://www.w3.org/2000/svg">
<g id="lightningbshandian 2">
<path id="Vector" d="M6.79538 15.0346C6.75655 15.0346 6.7273 15.0243 6.70789 15.0054C6.57173 14.9659 6.52319 14.8887 6.56202 14.772L7.46635 9.43391H3.5283C3.43111 9.43391 3.36302 9.39496 3.32406 9.31717C3.26581 9.24001 3.27551 9.15252 3.3533 9.05468L9.42074 1.12035C9.49853 1.00361 9.58602 0.984807 9.68323 1.06197C9.78043 1.08138 9.8291 1.15979 9.8291 1.29533L8.92477 6.63355H12.3961C12.4933 6.63355 12.5614 6.67301 12.6003 6.75018C12.6197 6.82797 12.6197 6.91546 12.6003 7.01278L6.99963 14.9471C6.94125 15.0054 6.87317 15.0346 6.79538 15.0346Z" fill="#FCC844"/>
</g>
</svg>
