<?xml version="1.0" standalone="yes"?>
<svg xmlns="http://www.w3.org/2000/svg" width="1024" height="768" style="background-color: transparent;">
<path style="fill:none; stroke:none;" d="M0 0L0 768L1024 768L1024 0L0 0z"/>
<path style="fill:#e7a76f; stroke:none;" d="M501 616C499.334 614.798 497.861 613.84 496 613C489.385 619.358 479.31 614.23 471.91 613.144C459.155 611.271 444.9 613 432 613L432 616C439.771 616.335 447.305 618.711 455 619.711C467.937 621.392 481.083 621.756 494 623.286C503.455 624.405 515.919 628.047 524.911 623.892C531.936 620.645 537.671 612.879 543.576 607.92C554.228 598.973 565.648 590.821 576.424 582.026C582.548 577.029 588.996 569.324 597.015 567.63C610.23 564.839 624.701 567.838 638 567.996C661.148 568.272 686.264 569.88 708.911 564.156C726.979 559.589 744.19 548.057 757.219 534.961C761.142 531.018 763.581 525.904 766.568 521.286C785.112 492.61 785 455.023 785 422C785 354.622 783 287.353 783 220C783 202.42 784.981 183.534 782.871 166.089C782.495 162.981 781.028 160.081 780.428 156.996C779.365 151.529 779.048 145.628 777.534 140.286C770.876 116.795 757.065 95.7015 737.625 80.865C719.765 67.2344 696.515 64.9122 675 62.8303C648.672 60.2825 621.359 61.8065 595 62.9606C574.085 63.8765 552.937 63 532 63L425 63C402.008 63 378.908 62.3417 356 63.9105C348.027 64.4565 339.983 63.6898 332 64.0394C311.436 64.9398 291.691 68.5823 274.17 80.0856C244.807 99.3638 230.254 130.991 226.184 165C225.248 172.821 226 181.127 226 189L226 235L226 376C226 394.361 226.779 412.711 226.996 431C227.325 458.652 227.023 484.067 237.877 510.004C242.38 520.765 251.302 530.956 259.961 538.56C270.752 548.037 283.288 557.177 297 561.9C326.059 571.909 359.757 569 390 569C403.456 569 418.789 566.971 432 569.63C446.536 572.555 458.174 582.988 470 591.112C479.779 597.829 495.234 605.263 501 616z"/>
<path style="fill:#f79a41; stroke:none;" d="M248 523C252.99 524.482 252.263 527.994 255.587 531.081C261.484 536.557 269.296 541.514 275.845 546.37C279.215 548.87 282.68 549.807 284 554C295.642 555.481 306.713 560.587 318 563.505C324.515 565.19 333.231 564.664 340 564.961C361.579 565.906 383.399 565 405 565C414.082 565 425.04 563.323 433.91 565.299C441.077 566.895 447.631 571.157 453.985 574.675C459.807 577.898 465.564 580.724 469.876 585.72C472.684 588.974 475.825 589.507 477 594C484.992 596.085 490.799 604.355 499 605C500.783 610.388 510.819 616.742 516.001 618.786C518.981 619.962 521.842 620.457 524 618L528 619L528 614C538.864 611.025 545.222 598.922 555 594C553.376 589.127 559.679 586.42 562 587C564.559 582.714 567.161 581.058 572 580C572.657 577.173 573.943 574.701 575 572C580.282 573.177 582.784 569.891 584 565C589.461 564.32 594.845 561.922 600 560C602.103 562.407 604.895 561.994 608 562L626 562C648.366 562 671.738 563.966 694 561.896C697.401 561.58 700.592 560.339 704 560L704 557C709.134 557 715.923 558.145 720.741 556.122C723.78 554.845 726.356 552.108 729.286 550.494C734.097 547.845 737.543 546.989 738 541C743.672 540.264 750.024 539.001 752 533C760.352 531.774 766.591 516.282 769.362 509.17C775.472 493.489 779.568 476.038 779.985 459C780.216 449.565 778 440.55 778 431C778 423.764 779.876 417.034 779.995 409.996C780.858 359.01 779.609 307.904 779.004 257C778.62 224.693 780.146 192.214 777.946 160C777.654 155.716 776.872 149.364 775.49 145.325C774.674 142.938 772.576 141.288 771.701 138.907C770.644 136.027 770.636 132.91 769.522 130C767.426 124.526 764.311 119.975 764 114C762.203 114 762.479 114.014 761 115C758.974 107.626 751.601 99.7517 746.367 94.3087C742.789 90.5874 739.656 90.8235 739 85C735.372 84.1255 732.901 83.2895 731 80C722.835 79.0961 715.756 72.6285 707.999 69.8804C701.365 67.5301 692.979 67.8339 686 67.1697C653.683 64.0941 620.471 66 588 66L417 66C402.376 66 387.609 66.6003 373 65.9606C339.763 64.5052 307.135 63.274 277.8 81.571C255.878 95.2443 239.192 117.908 232.761 143C231.289 148.743 231.42 155.111 230.831 161C229.23 176.998 228 192.899 228 209C228 271.688 226.217 334.352 228.961 397C230.179 424.814 225.999 453.529 231.666 481C234.692 495.671 242.838 509.079 248 523z"/>
<path style="fill:#e7a76f; stroke:none;" d="M472 166C466.458 166.019 461.513 167.939 456 168L456 171C445.939 171.236 440.421 176.097 433.023 181.897C429.561 184.611 425.543 186.187 422.48 189.511C417.352 195.076 410.624 203.186 403 205C402.991 201.813 403.352 198.255 401.262 195.594C398.491 192.067 390.908 189.022 392 184C389.032 181.72 385.124 180.957 382.083 178.611C378.375 175.75 375.235 169.979 370.778 168.333C367.327 167.059 362.744 168.509 362 172L358 171C356.52 177.293 357.72 181.507 364 184C362.07 179.973 359.716 171.389 367.833 173.519C371.135 174.385 373.631 177.458 376.089 179.636C381.608 184.528 387.024 189.62 392.41 194.661C396.536 198.524 399.819 201.453 397 207L399 210C395.979 210.958 393.161 211.724 390 212C392.057 213.582 393.387 213.826 396 214C394.839 221.854 390.152 227.296 386.662 234.17C383.867 239.675 381.712 247.166 377.481 251.701C372.249 257.31 358.747 258.402 360 268C364.053 266.139 366.983 262.981 370.665 260.511C374.188 258.148 378.48 256.395 381.03 252.871C385.943 246.083 388.41 237.206 392.774 230C399.63 218.677 407.123 208.122 417.004 199.17C448.817 170.348 492.521 155.788 535 165.843C542.801 167.689 551.795 170.647 558.985 174.184C564.852 177.071 569.26 181.159 576 182C577.323 185.969 580.426 186.598 583.576 189.013C586.353 191.142 588.64 193.989 592 195.258C594.833 196.329 598.042 195.904 601 196.289C606.026 196.944 611.088 198.145 616 199.375C621.437 200.737 626.394 203.628 632 204C633.477 208.177 637.595 209.965 640.985 212.591C644.459 215.281 647.638 218.553 650.805 221.6C658.661 229.161 664.887 240.681 668.215 251C673.643 267.828 676.116 285.402 672.487 303C670.737 311.484 665.399 319.648 664.238 328C663.259 335.046 667.527 343.183 668.741 350.09C669.793 356.079 668.777 363.076 667.675 369C660.438 407.918 619.569 446.973 579 447C585.523 449.737 591.711 446.886 598 445.104C603.766 443.47 609.929 443.655 615.536 441.251C620.806 438.991 626.04 434.551 630.514 431.01C634.476 427.874 641.176 426.445 642 421C649.105 417.907 653.721 410.336 657.789 404C668.058 388.008 673.212 370 671.911 351C671.205 340.697 667.689 332.372 669 322L672 323C673.098 317.677 673.328 312.38 674.259 307.09C675.495 300.074 677.808 293.229 677.985 286C678.268 274.473 675.581 263.629 676 252C673.344 252 673.76 250.548 672.5 248.333C669.63 243.29 667 237.893 667 232C659.452 228.61 656.338 216.663 648 216C647.259 213.389 643.739 209.812 644.46 207.134C646.259 200.452 655.394 199.879 656 192C662.578 190.163 666.731 184.901 672 181C671.436 177.821 672.329 172.044 669.643 169.873C663.888 165.221 658.165 171.918 654.625 175.562C649.048 181.302 639.8 184.842 635.148 191.224C632.925 194.274 632.679 198.399 632 202C625.633 198.419 619.923 194.238 612.714 192.456C606.314 190.874 598.572 192 592 192C589.931 185.054 582.736 182.447 576 182C574.253 175.432 565.616 175.303 560.412 172.056C551.354 166.402 541.474 162.114 530.866 160.194C528.292 159.729 525.637 160.255 523.06 159.806C513.06 158.06 503.903 157.099 493.866 159.607C488.179 161.027 473.973 159.256 472 166z"/>
<path style="fill:#f7f7f5; stroke:none;" d="M427 424C426.702 432.267 438.77 438.364 446 439C445.014 440.479 445 440.203 445 442L451 442C452.548 446.78 457.61 447.725 461.961 449.495C472.657 453.846 485.391 456.943 497 456.999C509.419 457.059 522.733 457.664 535 455.675C543.93 454.227 552.224 449.753 561 448.26C569.809 446.762 579.086 448.174 588 446.674C603.516 444.064 619.466 436.525 631.536 426.498C651.592 409.839 668.329 384.788 668.985 358C669.147 351.411 667.88 345.395 666.483 339C665.764 335.708 664.027 332.446 664.317 329C665.003 320.866 670.784 312.257 672.487 304C676.24 285.799 674.468 265.164 667.483 248C663.677 238.647 658.798 228.871 651.625 221.6C645.886 215.783 636.025 210.854 632 204C626.197 203.244 620.756 200.25 615 198.884C608.105 197.248 599.465 197.698 593 195.258C589.297 193.861 586.741 190.605 583.576 188.379C580.522 186.231 577.862 185.362 576 182C569.791 180.67 565.479 176.954 559.961 174.184C553.288 170.836 545.167 168.479 538 166.37C509.411 157.956 473.02 162.569 447.039 176.956C430.122 186.324 413.039 199.238 401.609 215C393.277 226.489 388.968 240.418 381.03 251.946C378.492 255.632 374.299 257.572 370.665 259.99C365.567 263.383 360.319 267.185 355.58 271.054C346.724 278.285 340.803 289.606 336.499 300C327.687 321.28 329.561 350.637 340.725 370.715C346.057 380.304 353.316 386.047 361.715 392.533C365.554 395.497 368.816 399.026 373.09 401.451C378.686 404.626 384.707 407.834 391 409.324C397.882 410.953 405.373 410.885 411.961 413.688C417.781 416.163 420.62 422.323 427 424M638 204L640 204C645.843 197.763 653.451 192.25 660.015 186.745C665.447 182.188 669.91 179.518 670 172C660.081 172.029 656.158 177.547 648.83 183.445C641.498 189.348 634.188 193.801 638 204M390 209C395.87 208.809 401.602 204.975 397.11 198.754C393.244 193.399 387.19 189.339 382.439 184.805C378.741 181.275 374.323 175.867 369.557 173.819C365.444 172.051 360.411 173.694 361.347 178.915C361.911 182.061 364.768 184.586 367.072 186.559C369.843 188.933 372.175 191.545 374.829 194.022C379.955 198.807 386.843 202.539 390 209z"/>
<path style="fill:#e7a76f; stroke:none;" d="M382 277C388.586 278.653 398.056 277.173 401.682 270.711C403.609 267.277 403.133 262.723 404.44 259C406.633 252.752 409.338 246.651 410 240C414.04 238.684 415.399 236.102 416 232C420.79 231.03 423.239 228.887 424 224C426.172 223.536 427.958 222.895 430 222L429 219C434.681 217.053 437.8 210.781 443 208C441.752 207.315 441.452 207.251 440 207C442.641 204.68 445.394 202.038 448.412 200.208C451.611 198.269 454.835 198.984 456 195C462.095 194.497 466.274 191.006 472 189.456C485.006 185.935 497.403 183.136 511 184.089C529.474 185.384 546.874 193.476 562 203.67C567.793 207.574 572.805 213.568 579.004 216.701C582.966 218.703 587.691 218.702 592 219.282C599.441 220.285 607.857 221.656 614.714 224.828C630.868 232.301 642.777 246.802 647.239 264C650.24 275.566 650 288.153 650 300C650.683 298.494 650.826 297.685 651 296C651.81 298.729 651.979 301.151 652 304C657.118 293.35 653.987 274.943 650.843 264C649.281 258.566 646.764 253.643 646 248L643 248C642.479 241.084 637.668 238.019 633 233.561C628.285 229.058 624.037 224.084 618 221.262C609.781 217.42 599.88 215.766 591 214.325C588.026 213.842 584.891 214.292 582.04 213.157C574.094 209.994 568.89 200.671 560 200L560 197C554.512 195.376 549.513 190.615 544 188.243C535.828 184.727 525.514 182.877 516.83 181.26C506.339 179.307 494.273 181.381 484 183.487C457.991 188.818 434.681 204.384 417.297 224.475C410.887 231.884 404.845 242.041 401.114 251.089C398.357 257.777 398.117 266.418 392.62 271.686C389.882 274.31 385.368 275.304 382 277z"/>
<path style="fill:#f79a41; stroke:none;" d="M456 195C455.53 196.454 455.666 197.3 454 198C450.037 199.664 447.56 200.087 444 202.833C441.782 204.545 438.81 206.492 443 207C438.009 210.522 434.323 216.019 429 219C429 220.797 429.014 220.521 430 222L424 224C422.748 228.422 420.309 230.53 416 232C415.01 235.798 413.469 238.124 410 240C408.815 246.993 405.661 253.232 403.785 260C401.981 266.513 402.6 271.375 395.996 275.3C390.614 278.499 382.127 278.038 376 280C375.316 284.884 372.361 287.88 368 290C366.901 294.225 364.636 298.363 360 299C358.458 309.599 357 320.258 357 331C359.067 327.55 358.989 323.947 359 320C360.36 324.601 359.363 329.191 360.263 333.83C361.026 337.763 362.808 340.866 363 345L366 345C366.86 353.639 372.373 365.151 378.938 370.968C380.962 372.761 383.576 372.794 385.78 374.174C388.125 375.643 388.934 378.546 391.274 379.973C393.741 381.477 397.238 380.998 400 381C401.497 388.341 421.288 389.64 425 384C427.549 387.844 430.535 388.542 435 388C435.38 394.314 441.575 397.314 447 399C445.521 399.986 445.797 400 444 400C448.892 405.507 457.401 405.713 463 410L465 409C466.893 411.849 468.653 412.391 472 412C472.803 417.473 476.264 418.488 480.87 420.505C488.87 424.009 495.119 426 504 426L502 427C507.329 429.236 511.69 426.427 517.015 426.054C525.506 425.46 534.736 427.964 542.995 426.38C547.622 425.492 549.889 421.704 554.174 420.475C558.423 419.256 563.619 420 568 420C576.734 420 585.554 420.039 594 417.455C605.763 413.857 613.358 405.055 624 400L624 395L632 392C633.936 387.237 635.584 383.222 636 378C637.195 379.223 637.316 379.42 638 381C641.42 378.842 641.873 375.736 643.01 372C645.502 363.813 646.581 352.371 644.275 344C642.892 338.976 639.241 333.329 640.664 328C642.913 319.577 648.165 312.94 649.561 304C651.55 291.266 650.663 274.359 646.956 262.001C645.943 258.623 643.848 256.017 642.505 252.83C640.563 248.224 639.026 243.733 635.829 239.746C630.956 233.667 623.178 228.989 616.424 225.274C605.024 219.003 589.876 222.467 579.004 216.147C573.523 212.962 569.239 207.927 563.999 204.344C548.613 193.823 530.888 185.413 512 184.089C497.695 183.087 484.694 185.737 471.001 189.456C465.664 190.905 461.614 194.226 456 195z"/>
<path style="fill:#e7a76f; stroke:none;" d="M368 188L368 192C372 194.019 374.5 196.754 379 198C376.921 194.334 372.071 189.051 368 188M263 192L263 344C264.552 340.301 264 335.983 264 332L264 310L264 231L264 205C264 200.74 264.661 195.959 263 192M379 198C380.223 199.195 380.42 199.316 382 200C381.02 198.217 381.092 198.406 379 198M259 200L259 336C260.661 332.041 260 327.26 260 323L260 299C260.001 276.402 261 253.675 261 231C261 221.387 262.813 209.002 259 200M382 200C382.406 202.093 382.217 202.02 384 203C383.317 201.42 383.195 201.223 382 200M384.667 203.333C384.222 203.778 385.278 203.722 385.333 203.667C385.778 203.222 384.722 203.278 384.667 203.333M386 204C387.26 205.951 388.019 206.84 390 208C388.846 205.751 388.249 205.154 386 204M390 209C392.052 209.874 393.747 209.953 396 210C393.948 209.126 392.253 209.047 390 209M452 264L453 269C455.997 267.798 457.481 266.849 459 264C461.643 288.041 457.864 312.867 460.059 336.981C460.56 342.494 471.1 345.648 475.122 341.851C478.191 338.953 477.981 333.862 477.999 330C478.045 320.424 474.176 300.079 484.299 294.168C489.381 291.201 495.98 296.102 497.427 301.015C499.431 307.817 498.499 317.976 497.83 325C497.457 328.919 495.844 334.082 498.179 337.697C501.147 342.291 510.685 342.1 513.852 338.022C516.516 334.591 516 330.075 516 326C518.138 329.544 519.352 334.007 521.889 337.231C526.06 342.533 532.786 342.983 539 343C536.668 342.015 534.543 342.019 532 342C537.148 340.478 542.687 340.986 548 340C542.004 337.849 535.207 341.663 529.001 338.543C515.6 331.808 516.051 312.426 529.289 305.86C534.335 303.357 540.549 304.011 546 304C548.408 303.995 552.269 304.569 553.971 302.397C557.089 298.418 552.849 292.068 548.985 290.603C541.506 287.769 533.92 293.417 527 295C526.792 286.1 532.733 282.013 541 280.733C551.409 279.121 560.988 281.954 567 291C571.018 281.317 560.564 276.89 553 276.17C544.048 275.317 532.423 275.793 525.723 282.723C523.684 284.832 523.066 287.827 521 290L522 296C526.708 296 534.383 297.527 536 292C543.291 291.688 551.264 290.439 552 300C545.619 300.322 539.46 301.179 533 301C530.665 300.935 527.474 299.624 525.25 300.361C522.778 301.181 519.504 304.638 519 307C516.417 300.103 518.163 291.817 515.4 285.21C513.252 280.071 506.627 277.067 504 272L496 272L496 268L488 268L488 272L483 272L483 256C475.322 253.152 467.198 249.326 459.479 255.058C456.257 257.451 454.787 261.235 452 264z"/>
<path style="fill:#f7f7f5; stroke:none;" d="M464 259L464 339L475 339L475 315C475 310.057 474.504 304.612 476.769 300.039C480.639 292.224 493.602 288.67 498.972 297.34C501.018 300.644 500 306.28 500 310L500 339L512 339C512 324.157 515.172 305.096 509.616 291.09C503.745 276.292 486.204 277.079 476 286L476 259L464 259z"/>
<path style="fill:#e7a76f; stroke:none;" d="M576 279C576 288.659 575.647 294.96 587 295L587 320C587.002 325.535 586.88 331.585 590.058 336.385C594.407 342.954 609.047 348.478 614 340C619.99 339.715 622.555 329.181 618.974 324.603C617.583 322.826 614.993 323.065 613 323L613 320L608 320C608 314.336 606.251 305.139 609.028 300.059C611.43 295.664 617.107 296.111 620.181 292.467C623.844 288.125 624.001 279.13 619.058 275.608C615.781 273.274 609.918 272.477 606 272C605.991 268.572 606.424 264.185 604.142 261.318C601.19 257.61 591.947 259.542 588.943 262.56C586.371 265.144 586.814 269.628 585.526 272.812C584.034 276.503 579.631 278.255 576 279z"/>
<path style="fill:#f7f7f5; stroke:none;" d="M590 280L579 280L579 293C582.78 291.552 585.942 291.014 590 291L590 317C590 322.719 589.682 328.672 593.38 333.482C600.699 343.004 620.215 340.397 616 326C612.858 326.583 608.22 328.007 605.603 325.397C603.347 323.146 604.001 318.883 604 316L604 291L616 291C616.687 287.3 616.99 283.763 617 280L603 280L603 262C599.447 262.481 592.221 263.21 590.117 266.56C588.298 269.457 590 276.559 590 280z"/>
<path style="fill:#e7a76f; stroke:none;" d="M338 296C341.195 292.391 342.273 288.144 344.799 284.184C348.43 278.49 353.71 273.136 359 269C354.205 267.143 351.89 270.583 348.965 274.001C343.314 280.601 339.668 287.341 338 296M404 328C407.111 329.767 407.891 332.692 410.498 334.965C415.164 339.03 423.767 343.45 430.004 343.902C439.292 344.575 458.08 336.461 449.987 324.39C443.336 314.471 431.481 328.075 425.681 320.362C420.823 313.903 418.622 300.11 427.129 295.573C430.597 293.723 434.316 294.545 438 295C431.381 291.035 422.18 293.647 419.148 301.039C415.958 308.818 419.058 322.478 426.105 327.397C431.761 331.345 436.504 326.213 442 325.408C444.536 325.037 447.809 326.332 448.459 329.079C449.345 332.82 443.605 336.177 440.961 337.651C432.96 342.111 420.665 340.31 416 332L412 332L412 329L407 328C407.819 324.187 408.023 321.416 404 320C404.35 311.86 405.582 300.157 409.653 293.019C415.671 282.466 436.301 274.466 446.494 283.738C452.682 289.367 446.144 295.543 440 296C448.695 303.416 456.559 288.807 449.57 281.529C439.643 271.192 416.102 275.195 408.974 287.004C406.977 290.311 406.811 293.872 405.729 297.428C404.192 302.481 401.948 306.501 402.054 312C402.158 317.377 403.769 322.62 404 328M377 280C378.58 279.316 378.777 279.195 380 278C378.42 278.684 378.223 278.805 377 280z"/>
<path style="fill:#f7f7f5; stroke:none;" d="M404 320C407.421 322.018 407.499 324.207 407 328C408.801 328.562 410.122 328.824 412 329L412 332L416 332C419.204 341.337 434.515 341.897 441.91 337.651C444.61 336.101 449.816 332.81 449.118 329.076C447.326 319.484 434.806 329.386 430.001 328.588C421.016 327.097 416.715 311.598 418.534 304.001C420.009 297.838 426.432 292.311 432.985 293.355C435.844 293.81 438.232 295.829 441.09 296.15C445.13 296.605 449.612 293.24 449.333 288.989C448.448 275.494 426.232 279.987 419.09 284.073C406.698 291.16 404.278 306.533 404 320M527 295C533.743 294.118 540.896 288.038 547.996 290.607C552.033 292.068 557.9 299.465 552.681 302.972C549.922 304.827 545.148 303.999 542 304C533.558 304.003 525.594 304.932 520.97 313.019C519.714 315.215 519.187 317.494 519.043 320C518.895 322.592 518.804 325.478 519.499 328C522.338 338.295 531.632 340.568 541 339.91C546.824 339.502 551.996 338.35 553 332L556 332L556 336C561.261 337.642 566.498 338.566 572 339L572 331L568 331C569.644 322.146 569.001 312.977 569 304C569 297.004 568.854 289.755 562.79 285.014C552.766 277.177 524.603 277.065 527 295z"/>
<path style="fill:#e7a76f; stroke:none;" d="M636 378C635.347 383.053 633.243 387.195 632 392C629.025 392.461 626.748 393.832 624 395L624 400C618.33 401.642 613.791 406.668 608.985 410.026C604.472 413.18 598.264 415.845 593 417.455C580.41 421.306 567.822 418.491 555.09 420.13C550.325 420.743 547.711 425.138 542.995 426.173C535.321 427.858 525.933 425.87 518.004 426.005C512.539 426.097 507.567 427.996 502 428L504 427C501.095 425.781 498.072 426.206 495 425.545C490.123 424.495 486.205 422.471 481.729 420.505C477.059 418.455 473.398 417.365 472 412C468.843 411.825 467.264 411.206 465 409L463 410C459.235 405.656 449.432 403.368 444 401L447 399C441.982 396.491 433.888 392.45 435 388C430.654 388.004 428.063 387.114 425 384C424.315 385.248 424.251 385.549 424 387C416.611 387 404.058 388.504 400 381C397.047 380.99 393.766 381.297 391.274 379.4C389.376 377.956 388.576 375.517 386.586 374.174C384.429 372.718 381.754 372.695 379.684 370.968C372.909 365.319 367.448 353.545 366 345L363 345C362.903 340.474 361.071 337.198 360.263 332.91C359.484 328.777 360 324.194 360 320C358.583 323.346 358.458 327.372 358 331C355.015 320.902 359.504 309.318 360 299C365.13 298.762 367.302 294.779 368 290C372.465 288.661 375.322 285.633 376 281C369.664 283.478 365.79 288.798 361.546 293.866C343.336 315.609 350.881 350.013 368.431 369.94C372.379 374.424 377.974 377.714 382.741 381.273C389.232 386.119 398.092 389.235 406 390.824C411.62 391.954 418.714 391.645 423.981 393.75C430.754 396.456 436.26 404.373 441.727 409.065C449.853 416.038 461.055 422.226 471.259 425.593C492.732 432.677 515.594 433.792 538 430.741C548.688 429.285 558.087 424.004 569 424C576.347 423.997 584.831 424.161 592 422.523C605.382 419.467 617.25 410.449 626.861 401.278C631.667 396.692 645.336 383.394 636 378M569 294C569 306.346 569.548 318.748 568 331L572 331L572 339C566.542 338.31 561.357 337.1 556 336L556 332L553 332L552 337C556.501 337.687 558.83 341.685 563.09 342.491C572.741 344.315 577.418 336.184 575 328L573 329C570.389 321.837 571 314.526 571 307C571 302.49 571.622 297.838 569 294M337.333 296.667C337.278 296.722 337.222 297.778 337.667 297.333C337.722 297.278 337.778 296.222 337.333 296.667M336 299C335.014 300.479 335 300.203 335 302C336.289 300.557 336.401 300.766 336 299M334 304L334 307C334.696 305.446 334.696 305.554 334 304M649.333 304.667C649.278 304.722 649.222 305.778 649.667 305.333C649.722 305.278 649.778 304.222 649.333 304.667M332 307L332 315C333.561 312.397 333.862 310.022 334 307L332 307M554 313C550.673 313 547.324 312.887 544 313.039C541.985 313.132 539.941 313.34 538.019 313.993C531.912 316.067 531.886 322.972 537.444 326.011C541.929 328.463 548.394 325.518 551.146 321.696C552.931 319.216 553.395 315.921 554 313M331 315C330.921 324.522 330.211 333.442 330.911 343C331.213 347.123 330.621 352.157 334 355C333.044 347.446 331.179 339.63 331.179 332C331.179 326.341 333.282 320.437 331 315z"/>
<path style="fill:#f79a41; stroke:none;" d="M537 318C538.667 323.508 542.908 323.421 548 323C548.683 321.42 548.805 321.223 550 320C547.061 314.669 541.904 315.922 537 318z"/>
<path style="fill:#e7a76f; stroke:none;" d="M645.333 317.667C645.278 317.722 645.222 318.778 645.667 318.333C645.722 318.278 645.778 317.222 645.333 317.667M644 319L644 322C644.696 320.446 644.696 320.554 644 319M642.333 323.667C642.278 323.722 642.222 324.778 642.667 324.333C642.722 324.278 642.778 323.222 642.333 323.667M641.333 325.667C641.278 325.722 641.222 326.778 641.667 326.333C641.722 326.278 641.778 325.222 641.333 325.667M640 327C640.068 334.561 644.037 340.678 644.871 348C646.003 357.937 643.168 366.426 642 376C652.877 363.49 646.924 345.053 644 331L641 331C640.826 329.315 640.683 328.506 640 327M334 355L335 360C335.791 357.693 335.475 356.935 334 355M336 360C336.379 362.825 336.997 365.333 338 368C339.139 364.785 338.185 362.512 336 360M342.333 372.667C342.278 372.722 342.222 373.778 342.667 373.333C342.722 373.278 342.778 372.222 342.333 372.667M344.333 376.667C344.278 376.722 344.222 377.778 344.667 377.333C344.722 377.278 344.778 376.222 344.333 376.667M345 378C345.936 379.949 346.392 380.55 348 382C347.064 380.051 346.608 379.45 345 378M640.333 379.667C640.278 379.722 640.222 380.778 640.667 380.333C640.722 380.278 640.778 379.222 640.333 379.667M348 382C349.223 383.195 349.42 383.316 351 384C349.777 382.805 349.58 382.684 348 382M351.333 384.667C351.278 384.722 351.222 385.778 351.667 385.333C351.722 385.278 351.778 384.222 351.333 384.667M352 386L355 395C363.707 397.592 369.445 404.569 379 406C378.014 407.479 378 407.203 378 409L396 413.389L416 416C408.536 408.977 394.389 410.938 385.09 407.101C372.634 401.962 363.901 391.72 352 386M416.667 417.333C416.222 417.778 417.278 417.722 417.333 417.667C417.778 417.222 416.722 417.278 416.667 417.333M418.333 418.667C418.278 418.722 418.222 419.778 418.667 419.333C418.722 419.278 418.778 418.222 418.333 418.667M420 421C422.04 423.88 424.12 425.96 427 428L427 424L420 421M440 438C442.131 439.819 443.201 440.131 446 440C444.031 438.937 442.202 438.468 440 438M446 442C447.631 443.366 449.038 444.142 451 445C450.346 441.946 448.993 442.064 446 442M453.667 446.333C453.222 446.778 454.278 446.722 454.333 446.667C454.778 446.222 453.722 446.278 453.667 446.333M455 447C456.248 447.685 456.548 447.749 458 448C456.752 447.315 456.452 447.251 455 447M458.667 448.333C458.222 448.778 459.278 448.722 459.333 448.667C459.778 448.222 458.722 448.278 458.667 448.333M552 451C555.239 452.226 557.697 450.814 561 450.258C565.862 449.441 571.071 449.041 576 449C568.806 445.981 558.903 448.118 552 451M460.667 449.333C460.222 449.778 461.278 449.722 461.333 449.667C461.778 449.222 460.722 449.278 460.667 449.333M462 450C463.506 450.683 464.315 450.826 466 451C464.494 450.317 463.685 450.174 462 450M468.667 452.333C468.222 452.778 469.278 452.722 469.333 452.667C469.778 452.222 468.722 452.278 468.667 452.333M544 453C546.698 453.969 549.161 453.353 552 453C549.244 451.923 546.893 452.468 544 453M473.667 453.333C473.222 453.778 474.278 453.722 474.333 453.667C474.778 453.222 473.722 453.278 473.667 453.333M475 454C477.603 455.561 479.978 455.862 483 456C480.44 454.058 478.192 454.035 475 454M539 454C540.769 454.779 542.036 454.912 544 455C542.231 454.221 540.964 454.088 539 454M483 456C487.456 458.141 492.189 457.71 497 458.17C509.072 459.323 520.025 458.521 532 457C526.64 454.751 520.6 456.715 515 456.961C504.248 457.431 493.68 456.088 483 456M264 478C264 483.551 262.976 490.253 264.728 495.576C276.968 532.743 318.858 536.996 352 537L352 535L344 535L344 533L355 533L355 531C340.949 531 327.554 530.111 314.001 526.126C308.476 524.501 300.689 521.822 299 516C295.212 514.522 292.113 512.517 288 512C287.079 505.659 282.213 505.119 278.394 500.857C275.934 498.113 275.247 494.51 273.331 491.464C270.289 486.627 266.597 483.203 264 478M568 543L574 541C574.855 544.992 578.47 544 582 544C589.442 544 596.632 543.454 604 543.028C609.14 542.73 614.932 541.911 620 542.056C622.273 542.12 623.917 543.51 626.083 543.889C631.392 544.817 637.611 544.063 643 544C648.817 543.932 653.87 541.673 660 542.028C666.28 542.391 672.655 543.894 679 542.778C681.492 542.339 683.589 540.97 686 540.306C691.023 538.922 694.974 538.62 699 535C695.343 533.919 691.801 534 688 534C689.036 532.814 689.339 532.396 690 531C680.799 532.708 671.321 531.893 662 532.004C641.114 532.252 618.746 531.267 598 533.714C588.215 534.869 572.048 530.53 568 543M445 536C446.645 538.847 448.777 539.658 452 540C453.841 545.243 464.272 548.859 468.91 552.003C481.191 560.329 491.46 571.654 502 581.961C507.259 587.103 512.056 593.178 520 591C517.905 583.096 509.163 578.308 503.6 572.759C487.104 556.305 469.373 537.923 445 536z"/>
</svg>
