<svg width="92" height="13" viewBox="0 0 92 13" fill="none" xmlns="http://www.w3.org/2000/svg">
<g id="Group 1410126550">
<g id="Group 1410126524">
<path id="Subtract" fill-rule="evenodd" clip-rule="evenodd" d="M18.1884 1.07263V10.011H20.0982V5.53527L23.2494 9.87516H23.2766L26.5506 5.23943V10.011H28.5285V1.07263H27.4382L23.2951 6.79711L19.242 1.07263H18.1884ZM30.7288 9.84798C31.1835 10.0654 31.6883 10.1741 32.243 10.1741C32.5977 10.1741 32.9023 10.1197 33.157 10.011C33.4207 9.91139 33.639 9.79364 33.8118 9.65777C33.9936 9.51285 34.1301 9.39058 34.221 9.29094C34.2256 9.28539 34.2302 9.27999 34.2346 9.27472V10.011H36.1444V4.07378H34.3711L34.2475 4.67981C34.0518 4.45721 33.8066 4.2552 33.5117 4.07378C33.2115 3.87452 32.7659 3.77488 32.1748 3.77488C31.6746 3.77488 31.2017 3.91075 30.7561 4.18248C30.3105 4.44514 29.9513 4.82103 29.6784 5.31014C29.4056 5.79925 29.2692 6.37893 29.2692 7.04919C29.2692 7.76474 29.4011 8.35348 29.6648 8.81542C29.9285 9.27736 30.2832 9.62154 30.7288 9.84798ZM33.4025 8.53011C33.2206 8.59351 33.016 8.62521 32.7887 8.62521C32.5067 8.62521 32.243 8.55275 31.9975 8.40783C31.761 8.26291 31.57 8.06364 31.4245 7.81003C31.279 7.55642 31.2063 7.27111 31.2063 6.95409C31.2063 6.63708 31.2745 6.35629 31.4109 6.11174C31.5473 5.86718 31.7292 5.67697 31.9565 5.54111C32.193 5.39619 32.4476 5.32373 32.7205 5.32373C32.966 5.32373 33.1888 5.36449 33.3889 5.44601C33.589 5.51847 33.7617 5.62716 33.9073 5.77208C34.0528 5.90794 34.1619 6.07551 34.2346 6.27477V7.72851C34.1346 7.92778 34.0164 8.09534 33.88 8.23121C33.7436 8.35801 33.5844 8.45765 33.4025 8.53011ZM38.7542 12.8098C39.127 12.9366 39.5817 13 40.1183 13C40.7731 13 41.3687 12.8687 41.9053 12.606C42.451 12.3524 42.8875 11.9992 43.2149 11.5463C43.5423 11.1025 43.706 10.5907 43.706 10.011V4.07378H41.9462L41.8004 4.53867C41.6094 4.32601 41.3261 4.1484 40.9504 4.00585C40.5776 3.85187 40.1319 3.77488 39.6136 3.77488C39.0952 3.77488 38.6041 3.91528 38.1403 4.19606C37.6765 4.47685 37.2991 4.86179 37.0081 5.3509C36.7171 5.83095 36.5715 6.38346 36.5715 7.00844C36.5715 7.61529 36.708 8.15875 36.9808 8.6388C37.2536 9.10979 37.6174 9.48568 38.0721 9.76646C38.5359 10.0382 39.0361 10.1741 39.5726 10.1741C40.191 10.1741 40.6912 10.0608 41.0732 9.8344C41.4016 9.63193 41.6426 9.40269 41.7962 9.14666V9.98385C41.7962 10.2827 41.7143 10.5318 41.5506 10.7311C41.396 10.9304 41.1869 11.0798 40.9231 11.1794C40.6685 11.2881 40.3911 11.3425 40.091 11.3425C39.6363 11.3425 39.268 11.2519 38.9861 11.0708C38.7132 10.8987 38.4722 10.7175 38.2631 10.5273L37.1445 11.8316C37.3446 11.9946 37.5719 12.1667 37.8266 12.3479C38.0812 12.529 38.3904 12.683 38.7542 12.8098ZM38.7132 7.81003C38.5677 7.55642 38.495 7.27111 38.495 6.95409C38.495 6.63708 38.5677 6.35629 38.7132 6.11174C38.8587 5.86718 39.0543 5.67697 39.2998 5.54111C39.5545 5.39619 39.8364 5.32373 40.1456 5.32373C40.4093 5.32373 40.6458 5.36449 40.8549 5.44601C41.0732 5.51847 41.2642 5.62716 41.4279 5.77208C41.5916 5.90794 41.7143 6.07551 41.7962 6.27477V7.72851C41.687 7.92778 41.5506 8.09534 41.3869 8.23121C41.2323 8.35801 41.0505 8.45765 40.8413 8.53011C40.6412 8.59351 40.4093 8.62521 40.1456 8.62521C39.8364 8.62521 39.5545 8.55275 39.2998 8.40783C39.0543 8.26291 38.8587 8.06364 38.7132 7.81003ZM46.4571 5.01898L46.3233 4.07378H44.5908V10.011H46.5006V7.59265C46.5006 7.16694 46.5597 6.79105 46.6779 6.46498C46.7962 6.13891 46.9644 5.88077 47.1827 5.69056C47.4009 5.50035 47.6556 5.40525 47.9466 5.40525C48.2558 5.40525 48.474 5.48676 48.6014 5.6498C48.7378 5.80378 48.8105 6.0121 48.8196 6.27477V10.011H50.7294V5.56828C50.7203 5.04294 50.5248 4.61724 50.1428 4.29117C49.77 3.95604 49.3016 3.78847 48.7378 3.78847C48.183 3.78847 47.7147 3.90622 47.3327 4.14172C46.9574 4.36419 46.6656 4.65661 46.4571 5.01898ZM52.6911 9.76646C53.2003 10.0382 53.8188 10.1741 54.5463 10.1741C54.8737 10.1741 55.2193 10.1197 55.583 10.011C55.9559 9.90233 56.3015 9.75741 56.6198 9.57626L55.774 8.16328C55.583 8.28102 55.3875 8.37613 55.1874 8.44859C54.9965 8.52105 54.7964 8.55728 54.5872 8.55728C54.2962 8.55728 54.0325 8.49388 53.796 8.36707C53.6439 8.28551 53.5126 8.1796 53.4019 8.04933L57.7656 6.66878C57.602 5.73585 57.2427 5.02483 56.688 4.53572C56.1423 4.03755 55.4421 3.78847 54.5872 3.78847C53.9506 3.78847 53.3731 3.93339 52.8548 4.22323C52.3364 4.50402 51.9226 4.88444 51.6134 5.36449C51.3042 5.84454 51.1496 6.38346 51.1496 6.98126C51.1496 7.60624 51.2815 8.15875 51.5452 8.6388C51.8089 9.11885 52.1909 9.49474 52.6911 9.76646ZM53.0346 6.9927C53.0329 6.95336 53.0321 6.91332 53.0321 6.87257C53.0321 6.5465 53.0867 6.26572 53.1958 6.03022C53.314 5.78566 53.4777 5.59998 53.6869 5.47318C53.9052 5.33732 54.1552 5.26938 54.4372 5.26938C54.81 5.26938 55.0874 5.35996 55.2693 5.54111C55.4495 5.70354 55.5771 5.89421 55.6521 6.11312L53.0346 6.9927ZM60.5456 1.46521H58.6358V4.04661H57.7082V5.52752H58.6358V10.011H60.5456V5.52752H61.9916V4.04661H60.5456V1.46521Z" fill="#222222"/>
<path id="Subtract_2" fill-rule="evenodd" clip-rule="evenodd" d="M65.4122 0.715057V10.011H72.1101V8.10889H67.3902V0.715057H65.4122ZM80.0628 0.715057V10.011H81.9726V9.41367C82.1913 9.61824 82.4369 9.79017 82.7092 9.92946C83.0548 10.0925 83.4777 10.174 83.9779 10.174C84.5235 10.174 85.0328 10.0427 85.5057 9.78001C85.9786 9.51734 86.356 9.14145 86.6379 8.65235C86.9289 8.16324 87.0744 7.58355 87.0744 6.91329C87.0744 6.24303 86.9426 5.67693 86.6788 5.215C86.4242 4.74401 86.0832 4.38623 85.6557 4.14168C85.2283 3.89712 84.7554 3.77485 84.237 3.77485C83.7369 3.77485 83.2912 3.84278 82.9002 3.97864C82.5091 4.1145 82.1954 4.28207 81.9589 4.48134V0.715057H80.0628ZM73.7563 9.84794C74.211 10.0653 74.7157 10.174 75.2705 10.174C75.6251 10.174 75.9298 10.1197 76.1844 10.011C76.4482 9.91135 76.6664 9.7936 76.8392 9.65773C77.0211 9.51281 77.1575 9.39054 77.2484 9.2909C77.2531 9.28536 77.2576 9.27995 77.2621 9.27468V10.011H79.1719V4.07375H77.3985L77.2749 4.67978C77.0793 4.45717 76.834 4.25516 76.5391 4.07375C76.239 3.87448 75.7934 3.77485 75.2022 3.77485C74.7021 3.77485 74.2292 3.91071 73.7836 4.18244C73.3379 4.44511 72.9787 4.82099 72.7059 5.3101C72.4331 5.79921 72.2966 6.3789 72.2966 7.04916C72.2966 7.7647 72.4285 8.35345 72.6922 8.81538C72.956 9.27732 73.3107 9.6215 73.7563 9.84794ZM76.43 8.53007C76.2481 8.59347 76.0435 8.62517 75.8161 8.62517C75.5342 8.62517 75.2705 8.55271 75.0249 8.40779C74.7885 8.26287 74.5975 8.0636 74.452 7.80999C74.3065 7.55638 74.2337 7.27107 74.2337 6.95405C74.2337 6.63704 74.3019 6.35625 74.4383 6.1117C74.5747 5.86714 74.7566 5.67693 74.984 5.54107C75.2204 5.39615 75.4751 5.32369 75.7479 5.32369C75.9934 5.32369 76.2163 5.36445 76.4163 5.44597C76.6164 5.51843 76.7892 5.62712 76.9347 5.77204C77.0802 5.9079 77.1893 6.07547 77.2621 6.27473V7.72847C77.1621 7.92774 77.0438 8.0953 76.9074 8.23117C76.771 8.35797 76.6119 8.45761 76.43 8.53007ZM84.3325 8.35345C84.0961 8.49837 83.8369 8.57083 83.555 8.57083C83.3094 8.57083 83.0866 8.53913 82.8866 8.47572C82.6865 8.40326 82.5091 8.30363 82.3545 8.17682C82.209 8.04096 82.0817 7.87339 81.9726 7.67413V6.22039C82.0544 6.02112 82.1681 5.85356 82.3136 5.71769C82.4682 5.57277 82.6501 5.46408 82.8593 5.39162C83.0775 5.3101 83.3094 5.26934 83.555 5.26934C83.8369 5.26934 84.0961 5.3418 84.3325 5.48673C84.5781 5.62259 84.7736 5.8128 84.9191 6.05735C85.0646 6.30191 85.1374 6.58269 85.1374 6.89971C85.1374 7.21672 85.0646 7.50203 84.9191 7.75565C84.7736 8.00926 84.5781 8.20852 84.3325 8.35345ZM88.0577 9.87512C88.4851 10.0472 88.9443 10.1333 89.4354 10.1333C90.0175 10.1333 90.4949 10.0336 90.8678 9.83436C91.2497 9.63509 91.5317 9.37695 91.7135 9.05994C91.9045 8.73386 92 8.38968 92 8.02737C92 7.72847 91.9409 7.47486 91.8227 7.26654C91.7135 7.04916 91.5544 6.86348 91.3452 6.7095C91.1361 6.55552 90.886 6.43324 90.5949 6.34267C90.3858 6.27021 90.1721 6.2068 89.9538 6.15246C89.7355 6.09811 89.5537 6.02112 89.4081 5.92149C89.2717 5.82186 89.2081 5.68599 89.2172 5.5139C89.2172 5.43238 89.249 5.35539 89.3127 5.28293C89.3763 5.21047 89.4627 5.1516 89.5718 5.10631C89.6901 5.06102 89.831 5.0429 89.9947 5.05196C90.1766 5.06102 90.3721 5.11537 90.5813 5.215C90.7996 5.30557 90.9951 5.41879 91.1679 5.55466L91.8909 4.44058C91.5817 4.21414 91.2543 4.0511 90.9087 3.95147C90.5631 3.85184 90.1402 3.80202 89.6401 3.80202C89.0853 3.80202 88.6306 3.90618 88.2759 4.1145C87.9303 4.31377 87.6757 4.56738 87.512 4.87534C87.3574 5.17424 87.2801 5.47314 87.2801 5.77204C87.2801 6.16151 87.3983 6.52382 87.6348 6.85895C87.8803 7.18502 88.2759 7.4341 88.8216 7.6062C89.0398 7.6696 89.2445 7.733 89.4354 7.7964C89.6264 7.85075 89.781 7.92321 89.8992 8.01379C90.0266 8.10436 90.0902 8.22664 90.0902 8.38062C90.0902 8.48931 90.0538 8.57988 89.9811 8.65235C89.9083 8.71575 89.8083 8.76556 89.681 8.8018C89.5627 8.82897 89.4263 8.84255 89.2717 8.84255C89.0717 8.84255 88.8443 8.78821 88.5897 8.67952C88.3441 8.56177 88.0758 8.37156 87.7848 8.10889L86.9936 9.15504C87.2846 9.463 87.6393 9.70302 88.0577 9.87512Z" fill="#222222"/>
</g>
<g id="Group 1410126526">
<g id="Group 1410126516">
<path id="Vector" fill-rule="evenodd" clip-rule="evenodd" d="M4.08661 0.219198C5.10535 0.442058 5.7473 1.44493 5.52401 2.47566L3.72378 10.7772C3.50049 11.794 2.49571 12.4487 1.47697 12.2258C0.472181 12.0029 -0.169765 11.0001 0.0395655 9.96934L1.8398 1.66779C2.07705 0.637061 3.06787 -0.00366274 4.08661 0.219198Z" fill="#222222"/>
<path id="Vector_2" fill-rule="evenodd" clip-rule="evenodd" d="M10.9527 0.203725C9.94788 0.440514 9.30594 1.42946 9.52922 2.46019L11.3295 10.7617C11.5527 11.7785 12.5575 12.4332 13.5763 12.2103C14.595 11.9875 15.237 10.9846 15.0276 9.95386L13.2134 1.65232C12.9762 0.621588 11.9714 -0.0191351 10.9527 0.203725Z" fill="#222222"/>
<path id="Vector_3" d="M1.82555 1.582C1.88137 1.24771 2.0907 0.899491 2.32794 0.620916C3.01175 -0.145167 4.26773 -0.200882 5.03528 0.495557L14.4551 9.00603C15.2227 9.70247 15.2925 10.8864 14.5947 11.6664C13.9109 12.4325 12.7107 12.5022 11.9571 11.8057L2.95593 3.68524C1.68599 2.54309 1.26733 4.31204 1.26733 4.31204L1.82555 1.582Z" fill="#222222"/>
<path id="Vector_4" d="M13.297 1.55487C13.2412 1.22058 13.0319 0.886285 12.7946 0.607709C12.1108 -0.158373 10.8548 -0.200159 10.0873 0.482351L0.667424 8.89533C-0.10012 9.57784 -0.211762 10.8871 0.49996 11.6532C1.18377 12.4193 2.39789 12.4611 3.16543 11.7647L12.1666 3.63025C13.4366 2.50202 13.767 4.1874 13.767 4.1874L13.297 1.55487Z" fill="#222222"/>
</g>
</g>
</g>
</svg>
