<svg width="30" height="30" viewBox="0 0 30 30" fill="none" xmlns="http://www.w3.org/2000/svg">
<g id="metamask 1">
<path id="Vector" d="M25.8098 3.34275L16.4407 10.3013L18.1733 6.19586L25.8098 3.34275Z" fill="#E2761B"/>
<path id="Vector_2" d="M4.18084 3.34275L13.4746 10.3672L11.8268 6.19586L4.18084 3.34275ZM22.4388 19.4727L19.9436 23.2957L25.2825 24.7646L26.8174 19.5574L22.4388 19.4727ZM3.19214 19.5574L4.71756 24.7646L10.0565 23.2957L7.56125 19.4727L3.19214 19.5574Z" fill="#E4761B"/>
<path id="Vector_3" d="M9.75521 13.0132L8.26746 15.2637L13.5688 15.4991L13.3805 9.80226L9.75521 13.0132ZM20.2354 13.0132L16.5631 9.73634L16.4407 15.4991L21.7326 15.2637L20.2354 13.0132ZM10.0565 23.2957L13.2392 21.742L10.4897 19.5951L10.0565 23.2957ZM16.7514 21.742L19.9435 23.2957L19.501 19.5951L16.7514 21.742Z" fill="#E4761B"/>
<path id="Vector_4" d="M19.9435 23.2957L16.7514 21.742L17.0057 23.823L16.9774 24.6987L19.9435 23.2957ZM10.0565 23.2957L13.0226 24.6987L13.0038 23.823L13.2392 21.742L10.0565 23.2957Z" fill="#D7C1B3"/>
<path id="Vector_5" d="M13.0697 18.2203L10.4143 17.4388L12.2881 16.5819L13.0697 18.2203ZM16.9209 18.2203L17.7024 16.5819L19.5857 17.4388L16.9209 18.2203Z" fill="#233447"/>
<path id="Vector_6" d="M10.0564 23.2957L10.5084 19.4727L7.56116 19.5574L10.0564 23.2957ZM19.4915 19.4727L19.9435 23.2957L22.4387 19.5574L19.4915 19.4727ZM21.7325 15.2637L16.4406 15.4991L16.9303 18.2203L17.7118 16.5819L19.5951 17.4388L21.7325 15.2637ZM10.4143 17.4388L12.2975 16.5819L13.0696 18.2203L13.5687 15.4991L8.26737 15.2637L10.4143 17.4388Z" fill="#CD6116"/>
<path id="Vector_7" d="M8.26746 15.2637L10.4897 19.5951L10.4143 17.4388L8.26746 15.2637ZM19.5951 17.4388L19.501 19.5951L21.7326 15.2637L19.5951 17.4388ZM13.5688 15.4991L13.0697 18.2203L13.6912 21.4313L13.8324 17.2034L13.5688 15.4991ZM16.4407 15.4991L16.1865 17.194L16.2995 21.4313L16.9304 18.2203L16.4407 15.4991Z" fill="#E4751F"/>
<path id="Vector_8" d="M16.9303 18.2203L16.2994 21.4313L16.7514 21.742L19.5009 19.5951L19.5951 17.4388L16.9303 18.2203ZM10.4143 17.4388L10.4896 19.5951L13.2392 21.742L13.6911 21.4313L13.0697 18.2203L10.4143 17.4388Z" fill="#F6851B"/>
<path id="Vector_9" d="M16.9774 24.6987L17.0057 23.823L16.7703 23.6158H13.2204L13.0038 23.823L13.0226 24.6987L10.0565 23.2957L11.0923 24.1431L13.1921 25.6026H16.7985L18.9077 24.1431L19.9435 23.2957L16.9774 24.6987Z" fill="#C0AD9E"/>
<path id="Vector_10" d="M16.7514 21.742L16.2995 21.4313H13.6912L13.2392 21.742L13.0038 23.823L13.2204 23.6158H16.7703L17.0057 23.823L16.7514 21.742Z" fill="#161616"/>
<path id="Vector_11" d="M26.2053 10.7533L27.0057 6.91149L25.8098 3.34275L16.7514 10.0659L20.2354 13.0132L25.1601 14.4539L26.2524 13.1827L25.7816 12.8437L26.5349 12.1563L25.9511 11.7043L26.7044 11.1299L26.2053 10.7533ZM2.99438 6.91149L3.79476 10.7533L3.28629 11.1299L4.03958 11.7043L3.46519 12.1563L4.21849 12.8437L3.74768 13.1827L4.83054 14.4539L9.75521 13.0132L13.2392 10.0659L4.18083 3.34275L2.99438 6.91149Z" fill="#763D16"/>
<path id="Vector_12" d="M25.1601 14.4539L20.2355 13.0132L21.7326 15.2637L19.501 19.5951L22.4388 19.5574H26.8174L25.1601 14.4539ZM9.75523 13.0132L4.83056 14.4539L3.19214 19.5574H7.56125L10.4897 19.5951L8.26747 15.2637L9.75523 13.0132ZM16.4407 15.4991L16.7515 10.0659L18.1827 6.19585H11.8268L13.2392 10.0659L13.5688 15.4991L13.6818 17.2128L13.6912 21.4313H16.2995L16.3183 17.2128L16.4407 15.4991Z" fill="#F6851B"/>
</g>
</svg>
