<svg width="15" height="15" viewBox="0 0 15 15" fill="none" xmlns="http://www.w3.org/2000/svg">
<path id="Subtract" fill-rule="evenodd" clip-rule="evenodd" d="M7.5 0C3.35786 0 0 3.35786 0 7.5C0 11.6421 3.35786 15 7.5 15C11.6421 15 15 11.6421 15 7.5C15 3.35786 11.6421 0 7.5 0ZM7 3.5C7 3.22386 7.22386 3 7.5 3C7.77614 3 8 3.22386 8 3.5V7H11.5C11.7761 7 12 7.22386 12 7.5C12 7.77614 11.7761 8 11.5 8H8V11.5C8 11.7761 7.77614 12 7.5 12C7.22386 12 7 11.7761 7 11.5V8H3.5C3.22386 8 3 7.77614 3 7.5C3 7.22386 3.22386 7 3.5 7H7V3.5Z" fill="#666666"/>
</svg>
