<svg width="12" height="12" viewBox="0 0 12 12" fill="none" xmlns="http://www.w3.org/2000/svg">
<g id="search">
<g id="search_2">
<path id="Union" fill-rule="evenodd" clip-rule="evenodd" d="M9.20588 5.55883C9.20588 7.57304 7.57304 9.20588 5.55883 9.20588C3.54461 9.20588 1.91177 7.57304 1.91177 5.55883C1.91177 3.54461 3.54461 1.91177 5.55883 1.91177C7.57304 1.91177 9.20588 3.54461 9.20588 5.55883ZM8.19886 9.27587C7.4539 9.80593 6.54277 10.1177 5.55883 10.1177C3.04106 10.1177 1 8.07659 1 5.55883C1 3.04106 3.04106 1 5.55883 1C8.07659 1 10.1177 3.04106 10.1177 5.55883C10.1177 6.76368 9.65025 7.85936 8.88688 8.67445L10.9077 10.6953C11.0858 10.8734 11.0858 11.162 10.9077 11.34C10.7297 11.5181 10.4411 11.5181 10.263 11.34L8.19886 9.27587Z" fill="#666666"/>
</g>
</g>
</svg>
