<svg width="34" height="34" viewBox="0 0 34 34" fill="none" xmlns="http://www.w3.org/2000/svg">
<g id="Group 1410126648">
<rect id="Rectangle 18" width="34" height="34" rx="8" fill="url(#paint0_linear_8407_678)" fill-opacity="0.6"/>
<path id="Vector" d="M25.8898 16.514L10.1385 8.17293C9.04234 7.59258 7.76927 8.56075 8.03581 9.7722L9.31978 15.6065C9.38657 15.9098 9.54866 16.1839 9.78235 16.3885C10.016 16.5932 10.3091 16.7177 10.6186 16.7439L18.8092 17.4376C19.2532 17.4752 19.2534 18.1249 18.8092 18.1628L10.6181 18.8575C10.3086 18.8837 10.0156 19.0082 9.78204 19.2129C9.54843 19.4175 9.38644 19.6916 9.31978 19.9949L8.03581 25.8282C7.76927 27.0391 9.04259 28.0076 10.1385 27.4275L25.8895 19.0866C26.9221 18.5397 26.9221 17.0607 25.8898 16.514Z" fill="white" fill-opacity="0.8"/>
</g>
<defs>
<linearGradient id="paint0_linear_8407_678" x1="-0.596491" y1="38.3488" x2="43.2636" y2="26.2311" gradientUnits="userSpaceOnUse">
<stop stop-color="#FCAC44"/>
<stop offset="1" stop-color="#FC8E43"/>
</linearGradient>
</defs>
</svg>
