<svg width="20" height="20" viewBox="0 0 20 20" fill="none" xmlns="http://www.w3.org/2000/svg">
<g id="yuyin-2 1">
<path id="Vector" d="M10.2273 2.27269C9.5645 2.27354 8.9291 2.5372 8.46044 3.00586C7.99178 3.47452 7.72812 4.10991 7.72728 4.77269V10.2272C7.72728 11.6054 8.8491 12.7272 10.2273 12.7272C11.6055 12.7272 12.7273 11.6054 12.7273 10.2272V4.77269C12.7273 3.39451 11.6055 2.27269 10.2273 2.27269ZM10.9091 17.7272H12.0455C12.2263 17.7273 12.3997 17.7991 12.5275 17.927C12.6553 18.0548 12.7272 18.2282 12.7272 18.4091C12.7272 18.5899 12.6553 18.7633 12.5275 18.8911C12.3997 19.019 12.2263 19.0908 12.0455 19.0909H8.4091C8.22829 19.0908 8.05489 19.019 7.92705 18.8911C7.79921 18.7633 7.72739 18.5899 7.72739 18.4091C7.72739 18.2282 7.79921 18.0548 7.92705 17.927C8.05489 17.7991 8.22829 17.7273 8.4091 17.7272H9.54546V16.7854C5.9791 16.4413 3.18182 13.4277 3.18182 9.77269V8.40906C3.18182 8.22823 3.25366 8.05481 3.38152 7.92694C3.50939 7.79907 3.68281 7.72724 3.86364 7.72724C4.04447 7.72724 4.21789 7.79907 4.34576 7.92694C4.47363 8.05481 4.54546 8.22823 4.54546 8.40906V9.77269C4.54546 12.9059 7.0941 15.4545 10.2273 15.4545C13.3605 15.4545 15.9091 12.9059 15.9091 9.77269V8.40906C15.9091 8.22825 15.981 8.05485 16.1088 7.92701C16.2367 7.79917 16.4101 7.72735 16.5909 7.72735C16.7717 7.72735 16.9451 7.79917 17.073 7.92701C17.2009 8.05485 17.2727 8.22825 17.2727 8.40906V9.77269C17.2727 13.4277 14.4755 16.4413 10.9091 16.7854V17.7272ZM10.2273 14.0909C8.09682 14.0909 6.36364 12.3577 6.36364 10.2272V4.77269C6.36364 2.64224 8.09682 0.909058 10.2273 0.909058C12.3577 0.909058 14.0909 2.64224 14.0909 4.77269V10.2272C14.0909 12.3577 12.3577 14.0909 10.2273 14.0909Z" fill="#999999"/>
</g>
</svg>
